<?xml version="1.0" encoding="UTF-8"?>
<svg width="128" height="128" viewBox="0 0 128 128" fill="none" xmlns="http://www.w3.org/2000/svg">
  <!-- Background with gold gradient -->
  <defs>
    <linearGradient id="busGradient" x1="0" y1="0" x2="1" y2="1">
      <stop offset="0%" stop-color="#D4AF37"/>
      <stop offset="100%" stop-color="#FFD700"/>
    </linearGradient>
    <filter id="glow" x="-20%" y="-20%" width="140%" height="140%">
      <feGaussianBlur stdDeviation="2" result="blur"/>
      <feComposite in="SourceGraphic" in2="blur" operator="over"/>
    </filter>
  </defs>

  <!-- Base circle with gold gradient -->
  <circle cx="64" cy="64" r="60" fill="url(#busGradient)"/>
  
  <!-- Bus body with dynamic curve -->
  <path d="M32 60C32 56.6863 34.6863 54 38 54H90C93.3137 54 96 56.6863 96 60V80C96 83.3137 93.3137 86 90 86H38C34.6863 86 32 83.3137 32 80V60Z" 
        fill="white" filter="url(#glow)"/>
  
  <!-- Windows with golden nodes -->
  <circle cx="45" cy="70" r="4" fill="#D4AF37"/>
  <circle cx="64" cy="70" r="4" fill="#D4AF37"/>
  <circle cx="83" cy="70" r="4" fill="#D4AF37"/>
  
  <!-- Connection lines between nodes -->
  <path d="M49 70L59 70M69 70L79 70" stroke="#D4AF37" stroke-width="2"/>
  
  <!-- Party elements -->
  <g transform="translate(0, -5)">
    <!-- Confetti -->
    <circle cx="40" cy="45" r="2" fill="#FFD700"/>
    <circle cx="55" cy="40" r="2" fill="#FFA500"/>
    <circle cx="70" cy="45" r="2" fill="#FFD700"/>
    <circle cx="85" cy="40" r="2" fill="#FFA500"/>
    
    <!-- Music notes -->
    <path d="M45 50C45 50 47 48 49 50C51 52 49 54 45 54" stroke="white" stroke-width="1" fill="none"/>
    <path d="M75 50C75 50 77 48 79 50C81 52 79 54 75 54" stroke="white" stroke-width="1" fill="none"/>
  </g>
  
  <!-- Freedom symbol (stylized bird) -->
  <path d="M64 40C64 40 60 35 55 40C50 45 55 50 64 50C73 50 78 45 73 40C68 35 64 40 64 40Z" 
        fill="white" opacity="0.8"/>
  
  <!-- Wheels with golden pattern -->
  <circle cx="45" cy="85" r="6" fill="#D4AF37"/>
  <circle cx="83" cy="85" r="6" fill="#D4AF37"/>
  <circle cx="45" cy="85" r="3" fill="white"/>
  <circle cx="83" cy="85" r="3" fill="white"/>
</svg> 